# xmcd
#
# Track frame offsets:
#	150
#	11162
#	18992
#	29260
#	40255
#	50805
#	64952
#	75515
#	84667
#	93955
#	102870
#	113487
#	124290
#	132347
#	141025
#	149185
#	164060
#	173000
#	184832
#	193397
#	204505
#	217310
#
# Disc length: 3055 seconds
#
# Revision: 0
# Processed by: cddbd v1.5.2PL0 Copyright (c) Steve Scherf et al.
# Submitted via: dBpowerAMP V4.0
#
DISCID=4e0bed16
DTITLE=Roger Miller - King of the Road His Greatest Hits
DYEAR=1998
DGENRE=Country
TTITLE0=King of the Road
TTITLE1=Dang Me
TTITLE2=Engine Engine Number 9
TTITLE3=Everything Coming Up Roses 
TTITLE4=Kansas City Star
TTITLE5=My Elusive Dreams
TTITLE6=Release Me
TTITLE7=Chug-A-Lug
TTITLE8=One Dyin' And A Buryin'
TTITLE9=Billy Bayou
TTITLE10=When Two Worlds Collide
TTITLE11=Burning Bridges
TTITLE12=Do-Wacka-Do
TTITLE13=England Swings
TTITLE14=In The Summertime
TTITLE15=Me And Bobby McGee
TTITLE16=My Uncle Used To Love (But She Died)
TTITLE17=Walkin' In The Sunshine
TTITLE18=You Can't Rollerskate  In A Buffalo Park
TTITLE19=Husbands And Wives
TTITLE20=The Last Word In Lonesome Is Me
TTITLE21=Little Green Apples
EXTD=Roger Miller\nKing of the road
EXTT0=
EXTT1=
EXTT2=
EXTT3=
EXTT4=
EXTT5=
EXTT6=
EXTT7=
EXTT8=
EXTT9=
EXTT10=
EXTT11=
EXTT12=
EXTT13=
EXTT14=
EXTT15=
EXTT16=
EXTT17=
EXTT18=
EXTT19=
EXTT20=
EXTT21=
PLAYORDER=
